<?xml version="1.0"?>
<svg xmlns="http://www.w3.org/2000/svg" xmlns:xlink="http://www.w3.org/1999/xlink" version="1.1" id="Capa_1" x="0px" y="0px" width="512px" height="512px" viewBox="0 0 485.212 485.212" style="enable-background:new 0 0 485.212 485.212;" xml:space="preserve" class=""><g><g>
	<path d="M363.907,90.828L257.769,77.653V11.315L166.789,0v45.55l60.653,7.549v98.529h-30.327v-30.177v-51.38l-58.756-7.285   c-5.54-1.246-11.191-2.135-17.058-2.135c-36.396,0-67.908,25.293-75.812,60.8V273.08l121.3,15.08v197.053h60.653V295.71   l60.653,7.547h30.322v90.979c0,25.109,20.377,45.49,45.49,45.49s45.485-20.381,45.485-45.49v-90.979h30.331V151.628   C431.813,116.091,400.306,90.828,363.907,90.828z M409.393,272.93h-90.976V155.362c5.811-20.286,24.143-34.205,45.49-34.205   c21.352,0,39.685,13.919,45.485,34.205V272.93z" data-original="#000000" class="active-path" data-old_color="#B8BDC3" fill="#C8CED6"/>
</g><script xmlns="" class="active-path" style="fill:#C8CED6" data-old_color="#B8BDC3"/></g> </svg>
